<?xml version="1.0" encoding="utf-8"?>
<!-- Svg Vector Icons : http://www.onlinewebfonts.com/icon -->
<!DOCTYPE svg PUBLIC "-//W3C//DTD SVG 1.1//EN" "http://www.w3.org/Graphics/SVG/1.1/DTD/svg11.dtd">
<svg version="1.1" xmlns="http://www.w3.org/2000/svg" xmlns:xlink="http://www.w3.org/1999/xlink" x="0px" y="0px" viewBox="0 0 1000 1000" enable-background="new 0 0 1000 1000" xml:space="preserve">
<metadata> Svg Vector Icons : http://www.onlinewebfonts.com/icon </metadata>
<g><path d="M970.1,895.4c40.3-70.1,18-123.9-53.3-177.7C832.9,654.3,751,611.8,692.1,680c0,0-62.5,74.4-246.4-99.7C231.8,376.4,321.6,304.1,321.6,304.1C396,229.3,348.7,173.5,286.3,89C223.9,4.5,160.9-22.2,70.4,50.4c-174.3,140,71.5,468.8,195.8,596.7l0,0c0,0,189,195.5,307.9,260.6l63.6,35.6c91.3,46.8,193.8,68.3,265.9,24.8C903.7,968.1,938.5,950.2,970.1,895.4z"/><path d="M771.6,211.8H606.2c-12.1,0-21.8,9.8-21.8,21.8c0,12.1,9.8,21.8,21.8,21.8h113.3L569.4,404.2c-8.6,8.5-8.6,22.3-0.1,30.9c4.3,4.3,9.9,6.5,15.5,6.5c5.6,0,11.1-2.1,15.4-6.3L749.7,287v114.7c0,12.1,9.8,21.8,21.8,21.8s21.8-9.8,21.8-21.8v-168C793.4,221.6,783.6,211.8,771.6,211.8z"/></g>
</svg>